<svg width="42" height="42" viewBox="0 0 42 42" fill="none" xmlns="http://www.w3.org/2000/svg">
<g clip-path="url(#clip0_1101_749)">
<path d="M38.4118 5.39565C35.0933 1.93683 29.3896 0.237061 21.0104 0.237061C12.6311 0.237061 6.9274 1.91706 3.60888 5.39565C1.14074 7.9453 0.0414768 11.4634 0.290366 15.8512C0.559995 20.4168 1.43111 24.7453 2.9037 28.7378C4.06518 31.9199 5.57925 34.8253 7.3837 37.3552C9.45777 40.2606 11.4489 41.7429 13.3156 41.7429C14.3941 41.7429 15.9289 41.2291 17.0904 38.7782C18.397 36.0309 19.8074 34.4498 20.9896 34.4498C22.1718 34.4498 23.5822 36.0309 24.8889 38.7782C26.0504 41.2291 27.5852 41.7429 28.6637 41.7429C30.5304 41.7429 32.5215 40.2606 34.5956 37.3552C36.4 34.8253 37.9141 31.9199 39.0963 28.718C40.5689 24.7255 41.44 20.3971 41.7096 15.8314C41.9585 11.4634 40.8593 7.9453 38.4118 5.39565ZM21.0104 2.07518C23.5822 2.07518 25.8844 2.2333 27.917 2.5693C31.4222 3.61683 33.8074 5.33635 34.16 7.07565C34.3467 7.98483 33.9318 8.85447 32.9156 9.66483C32.003 10.3961 30.9452 10.7519 29.6385 10.7519C27.1704 10.7519 24.3081 9.52647 21.2593 8.24177C18.9363 7.25353 16.5304 6.24553 14.2281 5.77118C12.9837 5.534 11.7807 5.39565 10.6193 5.39565C8.37925 5.39565 6.38814 5.88977 4.79111 6.81871C4.83259 6.77918 4.89481 6.71988 4.93629 6.66059C7.90222 3.5773 13.1496 2.07518 21.0104 2.07518ZM15.4311 38.0074C14.8296 39.2724 14.1244 39.9246 13.3363 39.9246C12.1748 39.9246 10.557 38.6201 8.91851 36.3274C4.37629 29.7853 2.73777 21.0295 5.16444 16.4046C5.89037 15.0211 7.19703 14.1909 8.66962 14.1909C10.3911 14.1909 13.2326 15.2582 16.9037 20.2982C19.6 23.9745 20.9481 28.0065 22.2341 31.9001C22.3585 32.2756 22.483 32.6709 22.6074 33.0465C22.0681 32.7698 21.5289 32.6314 20.9689 32.6314C18.9985 32.6314 17.1111 34.4498 15.4311 38.0074ZM39.843 15.7524C39.2207 26.2672 35.3422 33.1453 33.0815 36.3274C31.443 38.6201 29.8252 39.9246 28.6637 39.9246C27.8756 39.9246 27.1704 39.2724 26.5689 38.0074C26.5274 37.9086 26.4859 37.8295 26.4444 37.7307C25.4904 35.774 24.7852 33.6196 24.0178 31.3269C22.6696 27.2949 21.28 23.1246 18.4178 19.2309C14.2696 13.5585 10.8267 12.3726 8.66962 12.3726C6.49185 12.3726 4.56296 13.5585 3.52592 15.5745C3.0074 16.5232 2.65481 17.63 2.4474 18.8554C2.32296 17.8672 2.21925 16.8394 2.15703 15.7721C2.11555 13.0644 2.86222 10.9495 4.35555 9.46718C5.8074 8.00459 7.98518 7.23377 10.6193 7.23377C11.6356 7.23377 12.7348 7.35235 13.8548 7.58953C15.9704 8.00459 18.2726 8.99283 20.5126 9.94153C23.603 11.246 26.797 12.59 29.6385 12.59C31.36 12.59 32.8533 12.0959 34.0978 11.0879C35.6326 9.84271 36.2963 8.30106 35.9852 6.71988C35.8815 6.22577 35.6741 5.73165 35.3837 5.23753C36.0059 5.67236 36.5659 6.12694 37.0637 6.64083C39.1585 8.85447 40.0711 11.8389 39.843 15.7524Z" fill="url(#paint0_linear_1101_749)" stroke="url(#paint1_linear_1101_749)" stroke-width="0.25" stroke-miterlimit="10"/>
</g>
<defs>
<linearGradient id="paint0_linear_1101_749" x1="6.36346" y1="20.9999" x2="47.7676" y2="20.9999" gradientUnits="userSpaceOnUse">
<stop stop-color="#001C81"/>
<stop offset="1" stop-color="#3359DF"/>
</linearGradient>
<linearGradient id="paint1_linear_1101_749" x1="9.33303" y1="21.7411" x2="45.6263" y2="20.6529" gradientUnits="userSpaceOnUse">
<stop stop-color="#001C81"/>
<stop offset="1" stop-color="#3359DF"/>
</linearGradient>
<clipPath id="clip0_1101_749">
<rect width="42" height="42" fill="white"/>
</clipPath>
</defs>
</svg>
