<svg width="116" height="19" viewBox="0 0 116 19" fill="none" xmlns="http://www.w3.org/2000/svg">
<path d="M9.52691 1.38323C9.68113 0.932309 10.3189 0.93231 10.4731 1.38323L12.1295 6.22615C12.1987 6.42842 12.3888 6.56434 12.6026 6.56434H17.9059C18.3965 6.56434 18.5937 7.19718 18.19 7.47584L13.9443 10.4063C13.76 10.5335 13.6828 10.7677 13.7552 10.9796L15.3872 15.7511C15.5432 16.2073 15.0269 16.5983 14.6301 16.3244L10.284 13.3247C10.1131 13.2067 9.88694 13.2067 9.71598 13.3247L5.3699 16.3244C4.97311 16.5983 4.45676 16.2073 4.61279 15.7511L6.24476 10.9796C6.31723 10.7677 6.23998 10.5335 6.05569 10.4063L1.81003 7.47584C1.40631 7.19718 1.60351 6.56434 2.09406 6.56434H7.39743C7.61122 6.56434 7.80135 6.42842 7.87053 6.22615L9.52691 1.38323Z" fill="#FF9140"/>
<path d="M33.5269 1.38323C33.6811 0.932309 34.3189 0.93231 34.4731 1.38323L36.1295 6.22615C36.1987 6.42842 36.3888 6.56434 36.6026 6.56434H41.9059C42.3965 6.56434 42.5937 7.19718 42.19 7.47584L37.9443 10.4063C37.76 10.5335 37.6828 10.7677 37.7552 10.9796L39.3872 15.7511C39.5432 16.2073 39.0269 16.5983 38.6301 16.3244L34.284 13.3247C34.1131 13.2067 33.8869 13.2067 33.716 13.3247L29.3699 16.3244C28.9731 16.5983 28.4568 16.2073 28.6128 15.7511L30.2448 10.9796C30.3172 10.7677 30.24 10.5335 30.0557 10.4063L25.81 7.47584C25.4063 7.19718 25.6035 6.56434 26.0941 6.56434H31.3974C31.6112 6.56434 31.8013 6.42842 31.8705 6.22615L33.5269 1.38323Z" fill="#FF9140"/>
<path d="M57.5269 1.38323C57.6811 0.932309 58.3189 0.93231 58.4731 1.38323L60.1295 6.22615C60.1987 6.42842 60.3888 6.56434 60.6026 6.56434H65.9059C66.3965 6.56434 66.5937 7.19718 66.19 7.47584L61.9443 10.4063C61.76 10.5335 61.6828 10.7677 61.7552 10.9796L63.3872 15.7511C63.5432 16.2073 63.0269 16.5983 62.6301 16.3244L58.284 13.3247C58.1131 13.2067 57.8869 13.2067 57.716 13.3247L53.3699 16.3244C52.9731 16.5983 52.4568 16.2073 52.6128 15.7511L54.2448 10.9796C54.3172 10.7677 54.24 10.5335 54.0557 10.4063L49.81 7.47584C49.4063 7.19718 49.6035 6.56434 50.0941 6.56434H55.3974C55.6112 6.56434 55.8013 6.42842 55.8705 6.22615L57.5269 1.38323Z" fill="#FF9140"/>
<path d="M81.5269 1.38323C81.6811 0.932309 82.3189 0.93231 82.4731 1.38323L84.1295 6.22615C84.1987 6.42842 84.3888 6.56434 84.6026 6.56434H89.9059C90.3965 6.56434 90.5937 7.19718 90.19 7.47584L85.9443 10.4063C85.76 10.5335 85.6828 10.7677 85.7552 10.9796L87.3872 15.7511C87.5432 16.2073 87.0269 16.5983 86.6301 16.3244L82.284 13.3247C82.1131 13.2067 81.8869 13.2067 81.716 13.3247L77.3699 16.3244C76.9731 16.5983 76.4568 16.2073 76.6128 15.7511L78.2448 10.9796C78.3172 10.7677 78.24 10.5335 78.0557 10.4063L73.81 7.47584C73.4063 7.19718 73.6035 6.56434 74.0941 6.56434H79.3974C79.6112 6.56434 79.8013 6.42842 79.8705 6.22615L81.5269 1.38323Z" fill="#FF9140"/>
<path d="M105.527 1.38323C105.681 0.932309 106.319 0.93231 106.473 1.38323L108.129 6.22615C108.199 6.42842 108.389 6.56434 108.603 6.56434H113.906C114.396 6.56434 114.594 7.19718 114.19 7.47584L109.944 10.4063C109.76 10.5335 109.683 10.7677 109.755 10.9796L111.387 15.7511C111.543 16.2073 111.027 16.5983 110.63 16.3244L106.284 13.3247C106.113 13.2067 105.887 13.2067 105.716 13.3247L101.37 16.3244C100.973 16.5983 100.457 16.2073 100.613 15.7511L102.245 10.9796C102.317 10.7677 102.24 10.5335 102.056 10.4063L97.81 7.47584C97.4063 7.19718 97.6035 6.56434 98.0941 6.56434H103.397C103.611 6.56434 103.801 6.42842 103.871 6.22615L105.527 1.38323Z" fill="#FFD3B3"/>
</svg>
