<svg width="20" height="21" viewBox="0 0 20 21" fill="none" xmlns="http://www.w3.org/2000/svg">
<path d="M9.99731 4.89424C7.15795 4.89424 4.86644 7.18589 4.86644 10.0254C4.86644 12.865 7.15795 15.1566 9.99731 15.1566C12.8367 15.1566 15.1282 12.865 15.1282 10.0254C15.1282 7.18589 12.8367 4.89424 9.99731 4.89424ZM9.99731 13.3603C8.16111 13.3603 6.66262 11.8618 6.66262 10.0254C6.66262 8.18911 8.16111 6.69054 9.99731 6.69054C11.8335 6.69054 13.332 8.18911 13.332 10.0254C13.332 11.8618 11.8335 13.3603 9.99731 13.3603ZM15.3383 3.48823C14.6754 3.48823 14.14 4.02362 14.14 4.68659C14.14 5.34957 14.6754 5.88496 15.3383 5.88496C16.0013 5.88496 16.5366 5.35207 16.5366 4.68659C16.5368 4.52917 16.5059 4.37325 16.4458 4.22777C16.3856 4.08228 16.2974 3.9501 16.1861 3.83878C16.0748 3.72746 15.9426 3.6392 15.7971 3.57905C15.6516 3.51889 15.4957 3.48803 15.3383 3.48823ZM19.9989 10.0254C19.9989 8.64444 20.0114 7.27596 19.9338 5.89746C19.8563 4.29631 19.4911 2.87529 18.3203 1.70445C17.147 0.531102 15.7286 0.168341 14.1275 0.0907848C12.7466 0.013229 11.3782 0.025738 9.99981 0.025738C8.61891 0.025738 7.25051 0.013229 5.8721 0.0907848C4.27105 0.168341 2.85012 0.533604 1.67935 1.70445C0.506076 2.87779 0.143338 4.29631 0.0657868 5.89746C-0.0117642 7.27846 0.000744099 8.64694 0.000744099 10.0254C0.000744099 11.4039 -0.0117642 12.7749 0.0657868 14.1534C0.143338 15.7546 0.508578 17.1756 1.67935 18.3464C2.85262 19.5198 4.27105 19.8825 5.8721 19.9601C7.25301 20.0376 8.62141 20.0251 9.99981 20.0251C11.3807 20.0251 12.7491 20.0376 14.1275 19.9601C15.7286 19.8825 17.1495 19.5173 18.3203 18.3464C19.4936 17.1731 19.8563 15.7546 19.9338 14.1534C20.0139 12.7749 19.9989 11.4064 19.9989 10.0254ZM17.7974 15.9247C17.6148 16.38 17.3947 16.7203 17.0419 17.0705C16.6892 17.4233 16.3515 17.6434 15.8962 17.8261C14.5803 18.3489 11.4558 18.2313 9.99731 18.2313C8.53885 18.2313 5.4118 18.3489 4.09593 17.8286C3.64064 17.6459 3.30041 17.4258 2.95018 17.073C2.59745 16.7203 2.37731 16.3825 2.19469 15.9272C1.67434 14.6087 1.79192 11.484 1.79192 10.0254C1.79192 8.56689 1.67434 5.43964 2.19469 4.12369C2.37731 3.66836 2.59745 3.32812 2.95018 2.97786C3.30291 2.62761 3.64064 2.40495 4.09593 2.22232C5.4118 1.70194 8.53885 1.81953 9.99731 1.81953C11.4558 1.81953 14.5828 1.70194 15.8987 2.22232C16.354 2.40495 16.6942 2.62511 17.0444 2.97786C17.3972 3.33062 17.6173 3.66836 17.7999 4.12369C18.3203 5.43964 18.2027 8.56689 18.2027 10.0254C18.2027 11.484 18.3203 14.6087 17.7974 15.9247Z" fill="#3366FF"/>
</svg>
