<svg width="20" height="20" viewBox="0 0 20 20" fill="none" xmlns="http://www.w3.org/2000/svg">
<path d="M9.99731 4.86974C7.15795 4.86974 4.86644 7.16139 4.86644 10.0009C4.86644 12.8405 7.15795 15.1321 9.99731 15.1321C12.8367 15.1321 15.1282 12.8405 15.1282 10.0009C15.1282 7.16139 12.8367 4.86974 9.99731 4.86974ZM9.99731 13.3358C8.16111 13.3358 6.66262 11.8373 6.66262 10.0009C6.66262 8.16461 8.16111 6.66603 9.99731 6.66603C11.8335 6.66603 13.332 8.16461 13.332 10.0009C13.332 11.8373 11.8335 13.3358 9.99731 13.3358ZM15.3383 3.46372C14.6754 3.46372 14.14 3.99911 14.14 4.66209C14.14 5.32507 14.6754 5.86045 15.3383 5.86045C16.0013 5.86045 16.5366 5.32757 16.5366 4.66209C16.5368 4.50466 16.5059 4.34874 16.4458 4.20326C16.3856 4.05778 16.2974 3.92559 16.1861 3.81428C16.0748 3.70296 15.9426 3.6147 15.7971 3.55454C15.6516 3.49439 15.4957 3.46353 15.3383 3.46372ZM19.9989 10.0009C19.9989 8.61994 20.0114 7.25145 19.9338 5.87296C19.8563 4.27181 19.4911 2.85078 18.3203 1.67994C17.147 0.506596 15.7286 0.143835 14.1275 0.0662792C12.7466 -0.0112766 11.3782 0.00123243 9.99981 0.00123243C8.61891 0.00123243 7.25051 -0.0112766 5.8721 0.0662792C4.27105 0.143835 2.85012 0.509098 1.67935 1.67994C0.506076 2.85329 0.143338 4.27181 0.0657868 5.87296C-0.0117642 7.25395 0.000744099 8.62244 0.000744099 10.0009C0.000744099 11.3794 -0.0117642 12.7504 0.0657868 14.1289C0.143338 15.7301 0.508578 17.1511 1.67935 18.3219C2.85262 19.4953 4.27105 19.858 5.8721 19.9356C7.25301 20.0131 8.62141 20.0006 9.99981 20.0006C11.3807 20.0006 12.7491 20.0131 14.1275 19.9356C15.7286 19.858 17.1495 19.4928 18.3203 18.3219C19.4936 17.1486 19.8563 15.7301 19.9338 14.1289C20.0139 12.7504 19.9989 11.3819 19.9989 10.0009ZM17.7974 15.9002C17.6148 16.3555 17.3947 16.6957 17.0419 17.046C16.6892 17.3988 16.3515 17.6189 15.8962 17.8015C14.5803 18.3244 11.4558 18.2068 9.99731 18.2068C8.53885 18.2068 5.4118 18.3244 4.09593 17.804C3.64064 17.6214 3.30041 17.4013 2.95018 17.0485C2.59745 16.6958 2.37731 16.358 2.19469 15.9027C1.67434 14.5842 1.79192 11.4595 1.79192 10.0009C1.79192 8.54238 1.67434 5.41513 2.19469 4.09918C2.37731 3.64385 2.59745 3.30361 2.95018 2.95336C3.30291 2.60311 3.64064 2.38045 4.09593 2.19781C5.4118 1.67744 8.53885 1.79502 9.99731 1.79502C11.4558 1.79502 14.5828 1.67744 15.8987 2.19781C16.354 2.38045 16.6942 2.6006 17.0444 2.95336C17.3972 3.30611 17.6173 3.64385 17.7999 4.09918C18.3203 5.41513 18.2027 8.54238 18.2027 10.0009C18.2027 11.4595 18.3203 14.5842 17.7974 15.9002Z" fill="#3366FF"/>
</svg>
