<svg width="17" height="17" viewBox="0 0 17 17" fill="none" xmlns="http://www.w3.org/2000/svg">
<path d="M8.7129 6.62538V8.45534L9.64344 6.87962C9.9545 6.35289 10.5271 5.91501 11.2526 5.64362C11.9748 5.37348 12.8108 5.28356 13.598 5.41815C14.3826 5.55229 15.1007 5.90536 15.6223 6.50386C16.1406 7.09864 16.5 7.97592 16.5 9.22549V15.5258H14.2097V10.3255C14.2097 9.36009 13.8872 8.59885 13.3554 8.08238C12.8286 7.57082 12.1329 7.33537 11.4502 7.35055C10.0714 7.38122 8.7129 8.43684 8.7129 10.3255V15.5258H6.42258V5.4253H8.7129V6.62538ZM3.11935 5.4253V15.5258H0.829032V5.4253H3.11935ZM0.5 1.82516C0.5 1.14371 1.10911 0.525085 1.97419 0.525085C2.83927 0.525085 3.44839 1.14371 3.44839 1.82516C3.44839 2.50662 2.83927 3.12524 1.97419 3.12524C1.10911 3.12524 0.5 2.50662 0.5 1.82516Z" fill="#3366FF" stroke="#3366FF"/>
</svg>
